#!OML:ASF F:\VICON\USERDATA\INSTALL\rory3\rory3.ASF
:FULLY-SPECIFIED
:DEGREES
37
root -0.21762314109839154 17.802742691892036 5.977958724080521 -1.857955094777698 -3.5371163701228343 1.2506483021903807
lfemur 1.7949678097952706 -2.2537568771937844 -24.578519715873902
ltibia 31.641411250134574
lfoot 3.549892489930251 -6.247143846800764
ltoes 2.4426122596809554
rfemur -16.942973625233787 3.2439399365954413 21.057199319095695
rtibia 49.74493384348468
rfoot -17.09369967060465 -7.199539023378825
rtoes 0.4872811758232243
lowerback 10.540838510400013 0.08388758486526557 -3.327953613117108
upperback 0.3917799463328535 -0.4626360250096997 0.5335030219571651
thorax -5.60051451419726 -0.05445615659257669 2.38591461316694
lowerneck -16.37202422737562 -2.726201303781407 -1.8253973189880808
upperneck 21.945403056121677 -3.3744528424504274 0.48003365758823713
head 9.806186724684903 -1.6834239523566372 0.09017214315365606
lclavicle -3.6163629444471743e-16 5.803562888239436e-16
lhumerus -24.39318410467697 0.2027860203087073 78.52039101407541
lradius 30.07014419470576
lwrist 7.079468892236354
lhand -29.286421479442698 20.701486619722782
lfingers 7.12502
lthumb -2.830163277687268 50.591843010048166
rclavicle -3.6163629434065464e-16 5.803562888939336e-16
rhumerus -33.75864452643504 -25.589898860884706 -75.93289026648381
rradius 28.57514965609307
rwrist 2.925480670761058
rhand -17.513288530518608 20.89119085723853
rfingers 7.12502
rthumb 9.179719662044032 -8.347726010464587
38
root -0.22565703506741608 17.813463452034334 5.855513274825476 -1.5109092740321741 -3.995663415753573 0.6008541558523626
lfemur 2.349375213993257 -2.004822929001617 -23.630797799468578
ltibia 33.134508013108515
lfoot 2.9575417761728353 -5.77793440258017
ltoes 0.779127008036494
rfemur -17.891395158234946 3.4803032538995105 21.708905486648984
rtibia 48.26991633296444
rfoot -17.3939922724826 -7.135956758227375
rtoes -0.6595436463534607
lowerback 10.447569267085857 -0.10585113174978045 -2.935713613783065
upperback 0.3987402422095134 -0.6453739630684832 0.6634018922087356
thorax -5.574589157253953 -0.14930559347449884 2.5200899874858758
lowerneck -16.41053035490737 -2.7089892221125846 -1.8019146169361178
upperneck 21.89794210766741 -3.335886929579214 0.33885996154389714
head 9.799717177987132 -1.6681467145525197 0.03366064165471416
lclavicle -3.616362944489655e-16 5.803562888211842e-16
lhumerus -24.976149531649508 -0.02189052595681673 78.82043485081644
lradius 29.789134522667084
lwrist 6.2460812445002825
lhand -28.931855583820013 20.483254665555492
lfingers 7.12502
lthumb -2.4489416924186456 50.551007687265965
rclavicle -3.6163629435158924e-16 5.803562888867175e-16
rhumerus -33.41078421369404 -25.691642565787262 -75.8763166835134
rradius 29.114062478646265
rwrist 3.671866729218738
rhand -17.51497951970199 20.954416185132537
rfingers 7.12502
rthumb 9.262688032521838 -8.125649730165375
39
root -0.22185913664651336 17.813020833284185 6.557542477019483 -1.603287861466082 -4.697982852661822 0.5329480375518201
lfemur 2.377315592951817 -1.6509461015271156 -23.128120699651646
ltibia 34.63848122938983
lfoot 2.3898245602905632 -4.938939929196703
ltoes 1.9446430160269488
rfemur -18.653207632599095 3.7667231591366086 22.015530062191353
rtibia 47.0473463386986
rfoot -17.849159705153248 -7.102587285496415
rtoes 0.20540228793931536
lowerback 10.45634672870491 -0.2065137243369447 -2.895743457117825
upperback 0.3924646569868832 -0.7749728257531643 0.7768364472531277
thorax -5.587817013922232 -0.22835645842968771 2.6066788974373774
lowerneck -16.439670971579115 -2.6907683145620918 -1.7479549315999943
upperneck 21.864466678365275 -3.3005799988106115 0.25619318697850796
head 9.78235769532018 -1.6578822941703488 0.00017687222081464588
lclavicle -3.6163629444491016e-16 5.803562888239518e-16
lhumerus -25.371756315862704 -0.18659561881085196 79.1964337548278
lradius 29.279804623800054
lwrist 5.601955719253671
lhand -28.928014786286795 19.730106185649017
lfingers 7.12502
lthumb -2.340433902055765 49.88132657061765
rclavicle -3.616362943476602e-16 5.803562888893673e-16
rhumerus -32.96644394875972 -25.491536574350715 -75.73757163574403
rradius 29.559406330942096
rwrist 3.390530653201762
rhand -17.543126684191748 20.920402798330926
rfingers 7.12502
rthumb 9.300059319204433 -8.052885397825875
40
root -0.20901848528500944 17.80933369761569 7.066816382182894 -1.7632699549594895 -5.346810195719909 0.4740085314674456
lfemur 2.806129821121152 -1.2775110732976533 -22.623482809297943
ltibia 36.01520741368752
lfoot 1.966919122715172 -4.240310392187498
ltoes 1.9102657318385319
rfemur -19.07371507764784 4.022541760561693 22.385089794473487
rtibia 45.656293952378476
rfoot -18.60237965214998 -7.274854460969287
rtoes 0.8609047578789122
lowerback 10.451936341547182 -0.2736706921578741 -2.8151040053038052
upperback 0.39451008001583193 -0.8727540054428169 0.8690129783705803
thorax -5.521524465195483 -0.26763323021464963 2.7332028020954326
lowerneck -16.49578923036821 -2.6864060363447733 -1.7156766673931125
upperneck 21.86842459741472 -3.2905447466722126 0.18361440138276436
head 9.767915391978287 -1.6578023096602261 -0.0310072780892394
lclavicle -3.616362944388864e-16 5.803562888281914e-16
lhumerus -26.073730195063792 -0.5078843645085982 79.46240907535189
lradius 28.600345914614447
lwrist 5.562988363831151
lhand -28.90345436319872 19.39684518190373
lfingers 7.12502
lthumb -2.2613760270677954 49.52670993897556
rclavicle -3.6163629435782115e-16 5.803562888828903e-16
rhumerus -32.638676641734875 -25.122281621737617 -75.22469961225896
rradius 30.049084230078194
rwrist 2.9008415946744135
rhand -17.597589469412956 20.930608305790866
rfingers 7.12502
rthumb 9.263344452621858 -8.072371178052684
